<svg viewBox="0 0 84 76" xmlns="http://www.w3.org/2000/svg" xmlns:xlink="http://www.w3.org/1999/xlink"><style>:root&gt;svg{display:none}:root&gt;svg:target{display:block}</style><svg viewBox="0 0 76 76" id="icons--01" xmlns="http://www.w3.org/2000/svg"><path fill="#6d6d6d" d="M38 76C17.047 76 0 58.953 0 38S17.047 0 38 0s38 17.047 38 38-17.047 38-38 38zm0-72C19.252 4 4 19.252 4 38c0 18.748 15.252 34 34 34 18.748 0 34-15.252 34-34C72 19.252 56.748 4 38 4zm0 63C22.01 67 9 53.99 9 38S22.01 9 38 9s29 13.01 29 29-13.01 29-29 29zm0-54c-13.785 0-25 11.215-25 25s11.215 25 25 25 25-11.215 25-25-11.215-25-25-25zm9 27h-9a2 2 0 01-2-2v-9a2 2 0 014 0v7h7a2 2 0 010 4z"/></svg><svg viewBox="0 0 84 51" id="icons--02" xmlns="http://www.w3.org/2000/svg"><path fill="#6d6d6d" d="M8.19 50.982c-.394 0-.78-.117-1.107-.337-7.159-4.805-9.09-14.593-4.307-21.818 2.316-3.499 5.844-5.883 9.933-6.712a15.6 15.6 0 014.29-.269 2.025 2.025 0 01-.02-.808c1.149-6.469 4.731-12.1 10.086-15.858C32.42 1.423 38.907-.009 45.334 1.147c8.701 1.567 15.642 7.65 18.596 15.59a1.99 1.99 0 01.896-.172c6.074.25 11.565 3.261 15.06 8.262 2.97 4.247 4.112 9.173 3.215 13.868-.883 4.63-3.706 8.835-7.948 11.841a1.989 1.989 0 01-1.146.366l-65.815.08zm7.625-25.162a11.7 11.7 0 00-2.318.233 11.586 11.586 0 00-7.401 5.002c-3.455 5.218-2.21 12.227 2.723 15.91l64.535-.08c3.114-2.368 5.176-5.525 5.83-8.949.7-3.667-.186-7.4-2.56-10.796-2.708-3.874-6.922-6.244-11.607-6.542.29 1.493.448 3.031.456 4.6a2.001 2.001 0 01-1.983 2.02h-.011a2.002 2.002 0 01-1.995-1.997c-.057-9.91-7.145-18.372-16.852-20.12-5.378-.966-10.804.231-15.286 3.375-4.481 3.143-7.478 7.856-8.44 13.27a2.014 2.014 0 01-.336.808 15.57 15.57 0 013.863 1.886 2.017 2.017 0 01.554 2.785 1.986 1.986 0 01-2.767.557 11.45 11.45 0 00-6.405-1.962zm38.3-2.673a2 2 0 01-1.99-1.907c-.245-4.868-4.407-8.63-9.209-8.381a2.012 2.012 0 01-2.092-1.905 2.003 2.003 0 011.891-2.107c7.07-.348 13.039 5.111 13.393 12.19a2.003 2.003 0 01-1.994 2.11z"/></svg><svg viewBox="0 0 76 76" id="icons--03" xmlns="http://www.w3.org/2000/svg"><path fill="#6d6d6d" d="M38 76h-.025a2.004 2.004 0 01-.906-.228L1.111 57.806A1.999 1.999 0 01.006 56.02V20.09a1.99 1.99 0 01.184-.879l.043-.086c.205-.393.524-.69.896-.87l17.96-8.974a.523.523 0 01.037-.019L37.106.28a2.004 2.004 0 011.788 0L74.87 18.254a1.983 1.983 0 01.94.958c.133.285.191.585.185.879v35.928c0 .756-.427 1.449-1.105 1.787L38.931 75.772a2.003 2.003 0 01-.906.229H38zm2-36.73v31.5l31.995-15.986v-31.5L56.911 30.82a.52.52 0 01-.037.019zM4.005 54.784L36 70.77v-31.5L4.005 23.284zm2.471-34.733L38 35.801l13.526-6.758-31.523-15.75zm17.998-8.992l31.523 15.75 13.527-6.758L38 4.301zM29 58.017c-.305 0-.612-.07-.894-.21L10.11 48.813a1.998 1.998 0 01-1.106-1.787v-8.992a1.998 1.998 0 012.894-1.788l17.998 8.992A1.999 1.999 0 0131 47.027v8.992a1.999 1.999 0 01-2 1.998zM13.004 45.792l13.998 6.994V48.26l-13.998-6.993z"/></svg></svg>