<svg viewBox="0 0 13 12" xmlns="http://www.w3.org/2000/svg" xmlns:xlink="http://www.w3.org/1999/xlink"><style>:root&gt;svg{display:none}:root&gt;svg:target{display:block}</style><svg viewBox="0 0 13 9" id="icons--01" xmlns="http://www.w3.org/2000/svg"><path fill="#fff" d="M12.998 4.15c-.458.078-1.121-.003-1.473-.15.73-.06 1.226-.394 1.416-.847-.263.163-1.081.34-1.532.171a5.507 5.507 0 00-.072-.3C10.993 1.756 9.815.733 8.581.857c.1-.04.2-.078.303-.112.135-.05.932-.18.807-.462-.106-.25-1.08.187-1.264.244.242-.09.643-.248.685-.528-.37.051-.735.227-1.016.484a.7.7 0 00.195-.388c-.99.636-1.567 1.915-2.035 3.158-.367-.358-.693-.64-.985-.797-.819-.44-1.798-.901-3.336-1.475-.047.511.252 1.191 1.112 1.643-.186-.025-.527.031-.8.096.111.586.474 1.069 1.456 1.302-.448.03-.68.133-.89.354.204.407.703.886 1.6.788-.998.432-.407 1.233.405 1.113-1.385 1.438-3.569 1.332-4.823.13 3.274 4.483 10.391 2.65 11.452-1.667.795.006 1.261-.277 1.551-.59z"/></svg><svg viewBox="0 0 6 12" id="icons--02" xmlns="http://www.w3.org/2000/svg"><path fill="#fff" d="M3.988 11.993H1.325V6h-1.33V3.933h1.33v-1.24c0-1.685.751-2.688 2.886-2.688h1.777v2.067h-1.11c-.832 0-.886.288-.886.827l-.004 1.034h2.013l-.236 2.066H3.988v5.994z"/></svg><svg viewBox="0 0 9 9" id="icons--03" xmlns="http://www.w3.org/2000/svg"><path fill="#fff" d="M-.003 3.06A5.946 5.946 0 015.934 9H4.203A4.193 4.193 0 002.97 6.018 4.174 4.174 0 00-.003 4.784zM-.001 0c4.96 0 8.993 4.04 8.993 9.003h-1.73c0-4.012-3.259-7.277-7.263-7.277zm2.395 7.798c0 .66-.538 1.195-1.2 1.195-.662 0-1.199-.535-1.199-1.195s.537-1.195 1.2-1.195c.661 0 1.199.535 1.199 1.195z"/></svg><svg viewBox="0 0 13 9" id="icons--04" xmlns="http://www.w3.org/2000/svg"><path fill="#fff" d="M13.007 8.952V.636L9.033 3.922zM6.51 5.342l6.463-5.345H.047zm-2.523-1.42L.008.632l-.01 8.342zm.318.263L.497 9.008h12.027l-3.81-4.823-2.202 1.822v.002l-.001-.001-.002.001v-.002z"/></svg></svg>