<svg xmlns="http://www.w3.org/2000/svg" width="48" height="50"><path fill="#8038c2" d="M46.06 46.941a2.683 2.683 0 01-.977 2.46 2.739 2.739 0 01-2.638.437l-10.435-3.75a23.933 23.933 0 01-7.924 1.338c-7.316 0-14.372-3.344-18.875-8.946C1.223 33.52-.573 27.321.154 21.024c.728-6.297 3.892-11.937 8.91-15.88A24.229 24.229 0 0123.974 0c7.379 0 14.235 3.264 18.81 8.954 6.28 7.81 6.943 18.644 1.71 27.116zM39.372 34.03c4.584-6.68 4.248-15.416-.836-21.74-3.54-4.403-8.846-6.928-14.56-6.928-4.234 0-8.224 1.376-11.537 3.98-3.884 3.052-6.333 7.417-6.897 12.29-.563 4.874.827 9.672 3.914 13.512 3.486 4.334 8.95 6.922 14.62 6.922a18.44 18.44 0 006.816-1.292 2.752 2.752 0 011.653-.115c.218.022.433.071.642.145l6.864 2.468-.98-6.813a2.67 2.67 0 01.301-2.429zM23.145 10.739a2.673 2.673 0 01-1.384 3.535c-3.403 1.488-6.014 4.344-7.164 7.835a2.704 2.704 0 01-2.578 1.852c-.287 0-.57-.046-.844-.134a2.684 2.684 0 01-1.574-1.333 2.637 2.637 0 01-.162-2.046c1.627-4.937 5.318-8.975 10.127-11.078.347-.152.717-.23 1.098-.23 1.073 0 2.047.628 2.48 1.599z"/><path fill="#fff" d="M46.06 46.941a2.683 2.683 0 01-.977 2.46 2.739 2.739 0 01-2.638.437l-10.435-3.75a23.933 23.933 0 01-7.924 1.338c-7.316 0-14.372-3.344-18.875-8.946C1.223 33.52-.573 27.321.154 21.024c.728-6.297 3.892-11.937 8.91-15.88A24.229 24.229 0 0123.974 0c7.379 0 14.235 3.264 18.81 8.954 6.28 7.81 6.943 18.644 1.71 27.116zM39.372 34.03c4.584-6.68 4.248-15.416-.836-21.74-3.54-4.403-8.846-6.928-14.56-6.928-4.234 0-8.224 1.376-11.537 3.98-3.884 3.052-6.333 7.417-6.897 12.29-.563 4.874.827 9.672 3.914 13.512 3.486 4.334 8.95 6.922 14.62 6.922a18.44 18.44 0 006.816-1.292 2.752 2.752 0 011.653-.115c.218.022.433.071.642.145l6.864 2.468-.98-6.813a2.67 2.67 0 01.301-2.429zM23.145 10.739a2.673 2.673 0 01-1.384 3.535c-3.403 1.488-6.014 4.344-7.164 7.835a2.704 2.704 0 01-2.578 1.852c-.287 0-.57-.046-.844-.134a2.684 2.684 0 01-1.574-1.333 2.637 2.637 0 01-.162-2.046c1.627-4.937 5.318-8.975 10.127-11.078.347-.152.717-.23 1.098-.23 1.073 0 2.047.628 2.48 1.599z"/></svg>