<svg viewBox="0 0 48 51" xmlns="http://www.w3.org/2000/svg" xmlns:xlink="http://www.w3.org/1999/xlink"><style>:root&gt;svg{display:none}:root&gt;svg:target{display:block}</style><svg viewBox="0 0 23 23" id="clock" xmlns="http://www.w3.org/2000/svg"><path fill="#701dbb" d="M11.5-.012c6.35 0 11.5 5.149 11.5 11.5s-5.15 11.5-11.5 11.5c-6.352 0-11.5-5.149-11.5-11.5s5.148-11.5 11.5-11.5zM2.118 11.512a9.288 9.288 0 009.289 9.288 9.288 9.288 0 100-18.576 9.288 9.288 0 00-9.289 9.288zm11.973 2.285H10.58a.875.875 0 01-.876-.876V7.595a.876.876 0 111.751 0v4.45h2.636a.876.876 0 010 1.752z"/></svg><svg viewBox="0 0 26 27" id="icons--01" xmlns="http://www.w3.org/2000/svg"><defs><filter id="ba" width="46" height="47" x="-10" y="-10" filterUnits="userSpaceOnUse"><feOffset dy="1" in="SourceGraphic" result="FeOffset1089Out"/><feGaussianBlur in="FeOffset1089Out" result="FeGaussianBlur1090Out" stdDeviation="0 0"/></filter><mask id="bb" width="2" height="2" x="-1" y="-1"><path fill="#fff" d="M0 0h26v26H0z"/><path d="M12.785 26C5.74 26 .006 20.168.006 13S5.74 0 12.786 0c7.046 0 12.778 5.832 12.778 13s-5.732 13-12.779 13zm5.372-5.985c-.873 2.009-2.025 3.425-3.011 4.367a11.346 11.346 0 005.348-2.799 15.828 15.828 0 00-2.337-1.568zm-13.11 1.54a11.349 11.349 0 005.378 2.827c-1.009-.963-2.19-2.423-3.07-4.504-.763.437-1.534.99-2.309 1.677zm8.41-3.048v5.546c.967-.754 2.443-2.21 3.485-4.63a11.694 11.694 0 00-3.484-.916zm-4.892.767c1.044 2.51 2.562 4.01 3.548 4.78v-5.586a9.968 9.968 0 00-3.548.806zm10.066-.499a17.84 17.84 0 012.794 1.835 11.691 11.691 0 002.775-6.926h-4.7c-.062 1.969-.39 3.656-.869 5.091zm-17.26-5.09a11.69 11.69 0 002.74 6.885 15.108 15.108 0 012.765-1.987c-.444-1.393-.747-3.017-.806-4.899zm12.087 3.482c1.441.134 2.774.527 3.945 1.024.41-1.275.692-2.768.751-4.507h-4.696zm-6.042-3.483c.056 1.647.312 3.075.688 4.305a11.096 11.096 0 014.009-.867v-3.438zM19.5 12.316h4.7a11.69 11.69 0 00-2.74-6.885 15.094 15.094 0 01-2.766 1.986c.444 1.393.747 3.017.806 4.899zm-6.042 0h4.696c-.056-1.647-.312-3.075-.687-4.304a11.096 11.096 0 01-4.01.866zm-6.042 0h4.697V8.833c-1.442-.134-2.775-.527-3.946-1.024-.41 1.275-.692 2.768-.751 4.507zm-6.045 0H6.07c.062-1.969.39-3.656.869-5.091a17.799 17.799 0 01-2.794-1.836 11.691 11.691 0 00-2.774 6.927zM13.458 1.947v5.585a9.968 9.968 0 003.547-.806c-1.044-2.51-2.562-4.01-3.547-4.779zm-4.83 4.63a11.7 11.7 0 003.485.916V1.947c-.966.754-2.443 2.21-3.485 4.63zm6.518-4.96c1.008.964 2.19 2.424 3.07 4.505.762-.437 1.533-.99 2.308-1.677a11.352 11.352 0 00-5.379-2.827zm-10.07 2.8a15.79 15.79 0 002.337 1.568c.873-2.009 2.026-3.425 3.012-4.367a11.35 11.35 0 00-5.348 2.799z"/></mask></defs><g filter="url(#ba)"><path fill="none" d="M12.785 26C5.74 26 .006 20.168.006 13S5.74 0 12.786 0c7.046 0 12.778 5.832 12.778 13s-5.732 13-12.779 13zm5.372-5.985c-.873 2.009-2.025 3.425-3.011 4.367a11.346 11.346 0 005.348-2.799 15.828 15.828 0 00-2.337-1.568zm-13.11 1.54a11.349 11.349 0 005.378 2.827c-1.009-.963-2.19-2.423-3.07-4.504-.763.437-1.534.99-2.309 1.677zm8.41-3.048v5.546c.967-.754 2.443-2.21 3.485-4.63a11.694 11.694 0 00-3.484-.916zm-4.892.767c1.044 2.51 2.562 4.01 3.548 4.78v-5.586a9.968 9.968 0 00-3.548.806zm10.066-.499a17.84 17.84 0 012.794 1.835 11.691 11.691 0 002.775-6.926h-4.7c-.062 1.969-.39 3.656-.869 5.091zm-17.26-5.09a11.69 11.69 0 002.74 6.885 15.108 15.108 0 012.765-1.987c-.444-1.393-.747-3.017-.806-4.899zm12.087 3.482c1.441.134 2.774.527 3.945 1.024.41-1.275.692-2.768.751-4.507h-4.696zm-6.042-3.483c.056 1.647.312 3.075.688 4.305a11.096 11.096 0 014.009-.867v-3.438zM19.5 12.316h4.7a11.69 11.69 0 00-2.74-6.885 15.094 15.094 0 01-2.766 1.986c.444 1.393.747 3.017.806 4.899zm-6.042 0h4.696c-.056-1.647-.312-3.075-.687-4.304a11.096 11.096 0 01-4.01.866zm-6.042 0h4.697V8.833c-1.442-.134-2.775-.527-3.946-1.024-.41 1.275-.692 2.768-.751 4.507zm-6.045 0H6.07c.062-1.969.39-3.656.869-5.091a17.799 17.799 0 01-2.794-1.836 11.691 11.691 0 00-2.774 6.927zM13.458 1.947v5.585a9.968 9.968 0 003.547-.806c-1.044-2.51-2.562-4.01-3.547-4.779zm-4.83 4.63a11.7 11.7 0 003.485.916V1.947c-.966.754-2.443 2.21-3.485 4.63zm6.518-4.96c1.008.964 2.19 2.424 3.07 4.505.762-.437 1.533-.99 2.308-1.677a11.352 11.352 0 00-5.379-2.827zm-10.07 2.8a15.79 15.79 0 002.337 1.568c.873-2.009 2.026-3.425 3.012-4.367a11.35 11.35 0 00-5.348 2.799z" mask="url(#bb)"/><path fill="#fff" d="M12.785 26C5.74 26 .006 20.168.006 13S5.74 0 12.786 0c7.046 0 12.778 5.832 12.778 13s-5.732 13-12.779 13zm5.372-5.985c-.873 2.009-2.025 3.425-3.011 4.367a11.346 11.346 0 005.348-2.799 15.828 15.828 0 00-2.337-1.568zm-13.11 1.54a11.349 11.349 0 005.378 2.827c-1.009-.963-2.19-2.423-3.07-4.504-.763.437-1.534.99-2.309 1.677zm8.41-3.048v5.546c.967-.754 2.443-2.21 3.485-4.63a11.694 11.694 0 00-3.484-.916zm-4.892.767c1.044 2.51 2.562 4.01 3.548 4.78v-5.586a9.968 9.968 0 00-3.548.806zm10.066-.499a17.84 17.84 0 012.794 1.835 11.691 11.691 0 002.775-6.926h-4.7c-.062 1.969-.39 3.656-.869 5.091zm-17.26-5.09a11.69 11.69 0 002.74 6.885 15.108 15.108 0 012.765-1.987c-.444-1.393-.747-3.017-.806-4.899zm12.087 3.482c1.441.134 2.774.527 3.945 1.024.41-1.275.692-2.768.751-4.507h-4.696zm-6.042-3.483c.056 1.647.312 3.075.688 4.305a11.096 11.096 0 014.009-.867v-3.438zM19.5 12.316h4.7a11.69 11.69 0 00-2.74-6.885 15.094 15.094 0 01-2.766 1.986c.444 1.393.747 3.017.806 4.899zm-6.042 0h4.696c-.056-1.647-.312-3.075-.687-4.304a11.096 11.096 0 01-4.01.866zm-6.042 0h4.697V8.833c-1.442-.134-2.775-.527-3.946-1.024-.41 1.275-.692 2.768-.751 4.507zm-6.045 0H6.07c.062-1.969.39-3.656.869-5.091a17.799 17.799 0 01-2.794-1.836 11.691 11.691 0 00-2.774 6.927zM13.458 1.947v5.585a9.968 9.968 0 003.547-.806c-1.044-2.51-2.562-4.01-3.547-4.779zm-4.83 4.63a11.7 11.7 0 003.485.916V1.947c-.966.754-2.443 2.21-3.485 4.63zm6.518-4.96c1.008.964 2.19 2.424 3.07 4.505.762-.437 1.533-.99 2.308-1.677a11.352 11.352 0 00-5.379-2.827zm-10.07 2.8a15.79 15.79 0 002.337 1.568c.873-2.009 2.026-3.425 3.012-4.367a11.35 11.35 0 00-5.348 2.799z"/></g><path fill="#fff" d="M12.785 26C5.74 26 .006 20.168.006 13S5.74 0 12.786 0c7.046 0 12.778 5.832 12.778 13s-5.732 13-12.779 13zm5.372-5.985c-.873 2.009-2.025 3.425-3.011 4.367a11.346 11.346 0 005.348-2.799 15.828 15.828 0 00-2.337-1.568zm-13.11 1.54a11.349 11.349 0 005.378 2.827c-1.009-.963-2.19-2.423-3.07-4.504-.763.437-1.534.99-2.309 1.677zm8.41-3.048v5.546c.967-.754 2.443-2.21 3.485-4.63a11.694 11.694 0 00-3.484-.916zm-4.892.767c1.044 2.51 2.562 4.01 3.548 4.78v-5.586a9.968 9.968 0 00-3.548.806zm10.066-.499a17.84 17.84 0 012.794 1.835 11.691 11.691 0 002.775-6.926h-4.7c-.062 1.969-.39 3.656-.869 5.091zm-17.26-5.09a11.69 11.69 0 002.74 6.885 15.108 15.108 0 012.765-1.987c-.444-1.393-.747-3.017-.806-4.899zm12.087 3.482c1.441.134 2.774.527 3.945 1.024.41-1.275.692-2.768.751-4.507h-4.696zm-6.042-3.483c.056 1.647.312 3.075.688 4.305a11.096 11.096 0 014.009-.867v-3.438zM19.5 12.316h4.7a11.69 11.69 0 00-2.74-6.885 15.094 15.094 0 01-2.766 1.986c.444 1.393.747 3.017.806 4.899zm-6.042 0h4.696c-.056-1.647-.312-3.075-.687-4.304a11.096 11.096 0 01-4.01.866zm-6.042 0h4.697V8.833c-1.442-.134-2.775-.527-3.946-1.024-.41 1.275-.692 2.768-.751 4.507zm-6.045 0H6.07c.062-1.969.39-3.656.869-5.091a17.799 17.799 0 01-2.794-1.836 11.691 11.691 0 00-2.774 6.927zM13.458 1.947v5.585a9.968 9.968 0 003.547-.806c-1.044-2.51-2.562-4.01-3.547-4.779zm-4.83 4.63a11.7 11.7 0 003.485.916V1.947c-.966.754-2.443 2.21-3.485 4.63zm6.518-4.96c1.008.964 2.19 2.424 3.07 4.505.762-.437 1.533-.99 2.308-1.677a11.352 11.352 0 00-5.379-2.827zm-10.07 2.8a15.79 15.79 0 002.337 1.568c.873-2.009 2.026-3.425 3.012-4.367a11.35 11.35 0 00-5.348 2.799z"/><path fill="#7d7d7d" d="M12.785 26C5.74 26 .006 20.168.006 13S5.74 0 12.786 0c7.046 0 12.778 5.832 12.778 13s-5.732 13-12.779 13zm5.372-5.985c-.873 2.009-2.025 3.425-3.011 4.367a11.346 11.346 0 005.348-2.799 15.828 15.828 0 00-2.337-1.568zm-13.11 1.54a11.349 11.349 0 005.378 2.827c-1.009-.963-2.19-2.423-3.07-4.504-.763.437-1.534.99-2.309 1.677zm8.41-3.048v5.546c.967-.754 2.443-2.21 3.485-4.63a11.694 11.694 0 00-3.484-.916zm-4.892.767c1.044 2.51 2.562 4.01 3.548 4.78v-5.586a9.968 9.968 0 00-3.548.806zm10.066-.499a17.84 17.84 0 012.794 1.835 11.691 11.691 0 002.775-6.926h-4.7c-.062 1.969-.39 3.656-.869 5.091zm-17.26-5.09a11.69 11.69 0 002.74 6.885 15.108 15.108 0 012.765-1.987c-.444-1.393-.747-3.017-.806-4.899zm12.087 3.482c1.441.134 2.774.527 3.945 1.024.41-1.275.692-2.768.751-4.507h-4.696zm-6.042-3.483c.056 1.647.312 3.075.688 4.305a11.096 11.096 0 014.009-.867v-3.438zM19.5 12.316h4.7a11.69 11.69 0 00-2.74-6.885 15.094 15.094 0 01-2.766 1.986c.444 1.393.747 3.017.806 4.899zm-6.042 0h4.696c-.056-1.647-.312-3.075-.687-4.304a11.096 11.096 0 01-4.01.866zm-6.042 0h4.697V8.833c-1.442-.134-2.775-.527-3.946-1.024-.41 1.275-.692 2.768-.751 4.507zm-6.045 0H6.07c.062-1.969.39-3.656.869-5.091a17.799 17.799 0 01-2.794-1.836 11.691 11.691 0 00-2.774 6.927zM13.458 1.947v5.585a9.968 9.968 0 003.547-.806c-1.044-2.51-2.562-4.01-3.547-4.779zm-4.83 4.63a11.7 11.7 0 003.485.916V1.947c-.966.754-2.443 2.21-3.485 4.63zm6.518-4.96c1.008.964 2.19 2.424 3.07 4.505.762-.437 1.533-.99 2.308-1.677a11.352 11.352 0 00-5.379-2.827zm-10.07 2.8a15.79 15.79 0 002.337 1.568c.873-2.009 2.026-3.425 3.012-4.367a11.35 11.35 0 00-5.348 2.799z"/></svg><svg viewBox="0 0 26 25" id="icons--02" xmlns="http://www.w3.org/2000/svg"><defs><filter id="ca" width="46" height="45" x="-10" y="-10" filterUnits="userSpaceOnUse"><feOffset dy="1" in="SourceGraphic" result="FeOffset1110Out"/><feGaussianBlur in="FeOffset1110Out" result="FeGaussianBlur1111Out" stdDeviation="0 0"/></filter><mask id="cb" width="2" height="2" x="-1" y="-1"><path fill="#fff" d="M0 0h26v24H0z"/><path d="M6.966 23.285a.68.68 0 01-.672-.666l-.12-5.856-5.68-2.872a.679.679 0 01-.27-.98l.001-.002a.477.477 0 01.018-.025.67.67 0 01.258-.219L24.667.443a.668.668 0 01.95.376.688.688 0 01-.024.507l-9.06 21.384a.69.69 0 01-.12.198h-.001a.547.547 0 01-.025.027s-.001.001 0 0a.667.667 0 01-.45.2l-.02.001h-.008a.661.661 0 01-.387-.124l-5.12-3.57-2.916 3.595a.67.67 0 01-.52.248zm4.302-4.89l3.937 2.745-.177-7.216zm-3.752-1.743l.084 4.1 2.153-2.655.006-.007a.147.147 0 01.004-.005L19.39 6.643l-5.422 4.57a.636.636 0 01-.03.026zm8.819-4.28l.17 6.953 6.109-14.417zM2.84 13.557l3.903 1.974 4.314-3.636zM20.103 4.27L5.577 11.618l7.645-1.547z"/></mask></defs><g filter="url(#ca)"><path fill="none" d="M6.966 23.285a.68.68 0 01-.672-.666l-.12-5.856-5.68-2.872a.679.679 0 01-.27-.98l.001-.002a.477.477 0 01.018-.025.67.67 0 01.258-.219L24.667.443a.668.668 0 01.95.376.688.688 0 01-.024.507l-9.06 21.384a.69.69 0 01-.12.198h-.001a.547.547 0 01-.025.027s-.001.001 0 0a.667.667 0 01-.45.2l-.02.001h-.008a.661.661 0 01-.387-.124l-5.12-3.57-2.916 3.595a.67.67 0 01-.52.248zm4.302-4.89l3.937 2.745-.177-7.216zm-3.752-1.743l.084 4.1 2.153-2.655.006-.007a.147.147 0 01.004-.005L19.39 6.643l-5.422 4.57a.636.636 0 01-.03.026zm8.819-4.28l.17 6.953 6.109-14.417zM2.84 13.557l3.903 1.974 4.314-3.636zM20.103 4.27L5.577 11.618l7.645-1.547z" mask="url(#cb)"/><path fill="#fff" d="M6.966 23.285a.68.68 0 01-.672-.666l-.12-5.856-5.68-2.872a.679.679 0 01-.27-.98l.001-.002a.477.477 0 01.018-.025.67.67 0 01.258-.219L24.667.443a.668.668 0 01.95.376.688.688 0 01-.024.507l-9.06 21.384a.69.69 0 01-.12.198h-.001a.547.547 0 01-.025.027s-.001.001 0 0a.667.667 0 01-.45.2l-.02.001h-.008a.661.661 0 01-.387-.124l-5.12-3.57-2.916 3.595a.67.67 0 01-.52.248zm4.302-4.89l3.937 2.745-.177-7.216zm-3.752-1.743l.084 4.1 2.153-2.655.006-.007a.147.147 0 01.004-.005L19.39 6.643l-5.422 4.57a.636.636 0 01-.03.026zm8.819-4.28l.17 6.953 6.109-14.417zM2.84 13.557l3.903 1.974 4.314-3.636zM20.103 4.27L5.577 11.618l7.645-1.547z"/></g><path fill="#fff" d="M6.966 23.285a.68.68 0 01-.672-.666l-.12-5.856-5.68-2.872a.679.679 0 01-.27-.98l.001-.002a.477.477 0 01.018-.025.67.67 0 01.258-.219L24.667.443a.668.668 0 01.95.376.688.688 0 01-.024.507l-9.06 21.384a.69.69 0 01-.12.198h-.001a.547.547 0 01-.025.027s-.001.001 0 0a.667.667 0 01-.45.2l-.02.001h-.008a.661.661 0 01-.387-.124l-5.12-3.57-2.916 3.595a.67.67 0 01-.52.248zm4.302-4.89l3.937 2.745-.177-7.216zm-3.752-1.743l.084 4.1 2.153-2.655.006-.007a.147.147 0 01.004-.005L19.39 6.643l-5.422 4.57a.636.636 0 01-.03.026zm8.819-4.28l.17 6.953 6.109-14.417zM2.84 13.557l3.903 1.974 4.314-3.636zM20.103 4.27L5.577 11.618l7.645-1.547z"/><path fill="#701dbb" d="M6.966 23.285a.68.68 0 01-.672-.666l-.12-5.856-5.68-2.872a.679.679 0 01-.27-.98l.001-.002a.477.477 0 01.018-.025.67.67 0 01.258-.219L24.667.443a.668.668 0 01.95.376.688.688 0 01-.024.507l-9.06 21.384a.69.69 0 01-.12.198h-.001a.547.547 0 01-.025.027s-.001.001 0 0a.667.667 0 01-.45.2l-.02.001h-.008a.661.661 0 01-.387-.124l-5.12-3.57-2.916 3.595a.67.67 0 01-.52.248zm4.302-4.89l3.937 2.745-.177-7.216zm-3.752-1.743l.084 4.1 2.153-2.655.006-.007a.147.147 0 01.004-.005L19.39 6.643l-5.422 4.57a.636.636 0 01-.03.026zm8.819-4.28l.17 6.953 6.109-14.417zM2.84 13.557l3.903 1.974 4.314-3.636zM20.103 4.27L5.577 11.618l7.645-1.547z"/></svg><svg viewBox="0 0 21 27" id="icons--03" xmlns="http://www.w3.org/2000/svg"><defs><filter id="da" width="41" height="47" x="-10" y="-10" filterUnits="userSpaceOnUse"><feOffset dy="1" in="SourceGraphic" result="FeOffset1131Out"/><feGaussianBlur in="FeOffset1131Out" result="FeGaussianBlur1132Out" stdDeviation="0 0"/></filter><mask id="db" width="2" height="2" x="-1" y="-1"><path fill="#fff" d="M0 0h21v26H0z"/><path d="M19.617 26H1.457a.678.678 0 01-.672-.684V.684c0-.378.3-.684.672-.684h12.109a.666.666 0 01.47.197l.001.001v.001h.001L14.04.2l6.053 6.158.001.001h.001v.002h.001l.001.001a.688.688 0 01.193.478v18.476a.678.678 0 01-.672.684zM2.13 24.632h16.814V7.526h-5.38a.678.678 0 01-.673-.684V1.37H2.13zM14.236 6.158h3.757l-3.757-3.822zm2.354 14.71H4.484a.678.678 0 01-.673-.684c0-.378.301-.684.673-.684H16.59c.372 0 .673.306.673.684a.678.678 0 01-.673.684zm0-3.078H4.484a.679.679 0 01-.673-.685c0-.378.301-.684.673-.684H16.59c.372 0 .673.306.673.684a.679.679 0 01-.673.685zm-6.053-3.08H4.484a.678.678 0 01-.673-.684c0-.377.301-.684.673-.684h6.053a.68.68 0 01.673.684.678.678 0 01-.673.685zm-.473-7.184h-5.58a.678.678 0 01-.673-.684V3.763c0-.378.301-.684.673-.684h5.58c.371 0 .673.306.673.684v3.08a.678.678 0 01-.673.683zM5.156 6.158h4.236v-1.71H5.156z"/></mask></defs><g filter="url(#da)"><path fill="none" d="M19.617 26H1.457a.678.678 0 01-.672-.684V.684c0-.378.3-.684.672-.684h12.109a.666.666 0 01.47.197l.001.001v.001h.001L14.04.2l6.053 6.158.001.001h.001v.002h.001l.001.001a.688.688 0 01.193.478v18.476a.678.678 0 01-.672.684zM2.13 24.632h16.814V7.526h-5.38a.678.678 0 01-.673-.684V1.37H2.13zM14.236 6.158h3.757l-3.757-3.822zm2.354 14.71H4.484a.678.678 0 01-.673-.684c0-.378.301-.684.673-.684H16.59c.372 0 .673.306.673.684a.678.678 0 01-.673.684zm0-3.078H4.484a.679.679 0 01-.673-.685c0-.378.301-.684.673-.684H16.59c.372 0 .673.306.673.684a.679.679 0 01-.673.685zm-6.053-3.08H4.484a.678.678 0 01-.673-.684c0-.377.301-.684.673-.684h6.053a.68.68 0 01.673.684.678.678 0 01-.673.685zm-.473-7.184h-5.58a.678.678 0 01-.673-.684V3.763c0-.378.301-.684.673-.684h5.58c.371 0 .673.306.673.684v3.08a.678.678 0 01-.673.683zM5.156 6.158h4.236v-1.71H5.156z" mask="url(#db)"/><path fill="#fff" d="M19.617 26H1.457a.678.678 0 01-.672-.684V.684c0-.378.3-.684.672-.684h12.109a.666.666 0 01.47.197l.001.001v.001h.001L14.04.2l6.053 6.158.001.001h.001v.002h.001l.001.001a.688.688 0 01.193.478v18.476a.678.678 0 01-.672.684zM2.13 24.632h16.814V7.526h-5.38a.678.678 0 01-.673-.684V1.37H2.13zM14.236 6.158h3.757l-3.757-3.822zm2.354 14.71H4.484a.678.678 0 01-.673-.684c0-.378.301-.684.673-.684H16.59c.372 0 .673.306.673.684a.678.678 0 01-.673.684zm0-3.078H4.484a.679.679 0 01-.673-.685c0-.378.301-.684.673-.684H16.59c.372 0 .673.306.673.684a.679.679 0 01-.673.685zm-6.053-3.08H4.484a.678.678 0 01-.673-.684c0-.377.301-.684.673-.684h6.053a.68.68 0 01.673.684.678.678 0 01-.673.685zm-.473-7.184h-5.58a.678.678 0 01-.673-.684V3.763c0-.378.301-.684.673-.684h5.58c.371 0 .673.306.673.684v3.08a.678.678 0 01-.673.683zM5.156 6.158h4.236v-1.71H5.156z"/></g><path fill="#fff" d="M19.617 26H1.457a.678.678 0 01-.672-.684V.684c0-.378.3-.684.672-.684h12.109a.666.666 0 01.47.197l.001.001v.001h.001L14.04.2l6.053 6.158.001.001h.001v.002h.001l.001.001a.688.688 0 01.193.478v18.476a.678.678 0 01-.672.684zM2.13 24.632h16.814V7.526h-5.38a.678.678 0 01-.673-.684V1.37H2.13zM14.236 6.158h3.757l-3.757-3.822zm2.354 14.71H4.484a.678.678 0 01-.673-.684c0-.378.301-.684.673-.684H16.59c.372 0 .673.306.673.684a.678.678 0 01-.673.684zm0-3.078H4.484a.679.679 0 01-.673-.685c0-.378.301-.684.673-.684H16.59c.372 0 .673.306.673.684a.679.679 0 01-.673.685zm-6.053-3.08H4.484a.678.678 0 01-.673-.684c0-.377.301-.684.673-.684h6.053a.68.68 0 01.673.684.678.678 0 01-.673.685zm-.473-7.184h-5.58a.678.678 0 01-.673-.684V3.763c0-.378.301-.684.673-.684h5.58c.371 0 .673.306.673.684v3.08a.678.678 0 01-.673.683zM5.156 6.158h4.236v-1.71H5.156z"/><path fill="#7d7d7d" d="M19.617 26H1.457a.678.678 0 01-.672-.684V.684c0-.378.3-.684.672-.684h12.109a.666.666 0 01.47.197l.001.001v.001h.001L14.04.2l6.053 6.158.001.001h.001v.002h.001l.001.001a.688.688 0 01.193.478v18.476a.678.678 0 01-.672.684zM2.13 24.632h16.814V7.526h-5.38a.678.678 0 01-.673-.684V1.37H2.13zM14.236 6.158h3.757l-3.757-3.822zm2.354 14.71H4.484a.678.678 0 01-.673-.684c0-.378.301-.684.673-.684H16.59c.372 0 .673.306.673.684a.678.678 0 01-.673.684zm0-3.078H4.484a.679.679 0 01-.673-.685c0-.378.301-.684.673-.684H16.59c.372 0 .673.306.673.684a.679.679 0 01-.673.685zm-6.053-3.08H4.484a.678.678 0 01-.673-.684c0-.377.301-.684.673-.684h6.053a.68.68 0 01.673.684.678.678 0 01-.673.685zm-.473-7.184h-5.58a.678.678 0 01-.673-.684V3.763c0-.378.301-.684.673-.684h5.58c.371 0 .673.306.673.684v3.08a.678.678 0 01-.673.683zM5.156 6.158h4.236v-1.71H5.156z"/></svg><svg viewBox="0 0 17 27" id="icons--04" xmlns="http://www.w3.org/2000/svg"><defs><filter id="ea" width="37" height="47" x="-10" y="-10" filterUnits="userSpaceOnUse"><feOffset dy="1" in="SourceGraphic" result="FeOffset1152Out"/><feGaussianBlur in="FeOffset1152Out" result="FeGaussianBlur1153Out" stdDeviation="0 0"/></filter><mask id="eb" width="2" height="2" x="-1" y="-1"><path fill="#fff" d="M0 0h17v26H0z"/><path d="M8.756 25.316a.671.671 0 01-.594-.362L1.217 11.72a8.395 8.395 0 01-.7-3.368c0-4.606 3.696-8.354 8.24-8.354 4.542 0 8.238 3.748 8.238 8.354a8.394 8.394 0 01-.73 3.441L9.35 24.955a.672.672 0 01-.594.36zM2.417 11.104l6.34 12.079 6.309-12.01c.388-.89.584-1.839.584-2.821 0-3.854-3.092-6.99-6.894-6.99-3.801 0-6.894 3.136-6.894 6.99 0 .956.187 1.882.555 2.752zm6.34 1.308c-2.374 0-4.305-1.958-4.305-4.365s1.93-4.365 4.304-4.365c2.374 0 4.305 1.958 4.305 4.365s-1.931 4.365-4.305 4.365zm0-7.366c-1.632 0-2.96 1.346-2.96 3 0 1.655 1.328 3.002 2.96 3.002 1.631 0 2.959-1.347 2.959-3.001 0-1.655-1.328-3.001-2.96-3.001z"/></mask></defs><g filter="url(#ea)"><path fill="none" d="M8.756 25.316a.671.671 0 01-.594-.362L1.217 11.72a8.395 8.395 0 01-.7-3.368c0-4.606 3.696-8.354 8.24-8.354 4.542 0 8.238 3.748 8.238 8.354a8.394 8.394 0 01-.73 3.441L9.35 24.955a.672.672 0 01-.594.36zM2.417 11.104l6.34 12.079 6.309-12.01c.388-.89.584-1.839.584-2.821 0-3.854-3.092-6.99-6.894-6.99-3.801 0-6.894 3.136-6.894 6.99 0 .956.187 1.882.555 2.752zm6.34 1.308c-2.374 0-4.305-1.958-4.305-4.365s1.93-4.365 4.304-4.365c2.374 0 4.305 1.958 4.305 4.365s-1.931 4.365-4.305 4.365zm0-7.366c-1.632 0-2.96 1.346-2.96 3 0 1.655 1.328 3.002 2.96 3.002 1.631 0 2.959-1.347 2.959-3.001 0-1.655-1.328-3.001-2.96-3.001z" mask="url(#eb)"/><path fill="#fff" d="M8.756 25.316a.671.671 0 01-.594-.362L1.217 11.72a8.395 8.395 0 01-.7-3.368c0-4.606 3.696-8.354 8.24-8.354 4.542 0 8.238 3.748 8.238 8.354a8.394 8.394 0 01-.73 3.441L9.35 24.955a.672.672 0 01-.594.36zM2.417 11.104l6.34 12.079 6.309-12.01c.388-.89.584-1.839.584-2.821 0-3.854-3.092-6.99-6.894-6.99-3.801 0-6.894 3.136-6.894 6.99 0 .956.187 1.882.555 2.752zm6.34 1.308c-2.374 0-4.305-1.958-4.305-4.365s1.93-4.365 4.304-4.365c2.374 0 4.305 1.958 4.305 4.365s-1.931 4.365-4.305 4.365zm0-7.366c-1.632 0-2.96 1.346-2.96 3 0 1.655 1.328 3.002 2.96 3.002 1.631 0 2.959-1.347 2.959-3.001 0-1.655-1.328-3.001-2.96-3.001z"/></g><path fill="#fff" d="M8.756 25.316a.671.671 0 01-.594-.362L1.217 11.72a8.395 8.395 0 01-.7-3.368c0-4.606 3.696-8.354 8.24-8.354 4.542 0 8.238 3.748 8.238 8.354a8.394 8.394 0 01-.73 3.441L9.35 24.955a.672.672 0 01-.594.36zM2.417 11.104l6.34 12.079 6.309-12.01c.388-.89.584-1.839.584-2.821 0-3.854-3.092-6.99-6.894-6.99-3.801 0-6.894 3.136-6.894 6.99 0 .956.187 1.882.555 2.752zm6.34 1.308c-2.374 0-4.305-1.958-4.305-4.365s1.93-4.365 4.304-4.365c2.374 0 4.305 1.958 4.305 4.365s-1.931 4.365-4.305 4.365zm0-7.366c-1.632 0-2.96 1.346-2.96 3 0 1.655 1.328 3.002 2.96 3.002 1.631 0 2.959-1.347 2.959-3.001 0-1.655-1.328-3.001-2.96-3.001z"/><path fill="#7d7d7d" d="M8.756 25.316a.671.671 0 01-.594-.362L1.217 11.72a8.395 8.395 0 01-.7-3.368c0-4.606 3.696-8.354 8.24-8.354 4.542 0 8.238 3.748 8.238 8.354a8.394 8.394 0 01-.73 3.441L9.35 24.955a.672.672 0 01-.594.36zM2.417 11.104l6.34 12.079 6.309-12.01c.388-.89.584-1.839.584-2.821 0-3.854-3.092-6.99-6.894-6.99-3.801 0-6.894 3.136-6.894 6.99 0 .956.187 1.882.555 2.752zm6.34 1.308c-2.374 0-4.305-1.958-4.305-4.365s1.93-4.365 4.304-4.365c2.374 0 4.305 1.958 4.305 4.365s-1.931 4.365-4.305 4.365zm0-7.366c-1.632 0-2.96 1.346-2.96 3 0 1.655 1.328 3.002 2.96 3.002 1.631 0 2.959-1.347 2.959-3.001 0-1.655-1.328-3.001-2.96-3.001z"/></svg><svg viewBox="0 0 48 51" id="logo" xmlns="http://www.w3.org/2000/svg"><defs><linearGradient id="fc" x1="8" x2="40" y1="50" y2="0" gradientUnits="userSpaceOnUse"><stop offset="0" stop-opacity=".3"/><stop offset="1" stop-color="#fff" stop-opacity=".3"/></linearGradient><filter id="fa" width="68" height="71" x="-10" y="-10" filterUnits="userSpaceOnUse"><feOffset dy="1" in="SourceGraphic" result="FeOffset1023Out"/><feGaussianBlur in="FeOffset1023Out" result="FeGaussianBlur1024Out" stdDeviation="0 0"/></filter><mask id="fb" width="2" height="2" x="-1" y="-1"><path fill="#fff" d="M0 0h48v50H0z"/><path d="M46.06 46.941a2.683 2.683 0 01-.977 2.46 2.737 2.737 0 01-2.638.437l-10.435-3.75a23.933 23.933 0 01-7.924 1.338c-7.316 0-14.372-3.344-18.875-8.946C1.223 33.52-.573 27.32.154 21.024c.728-6.297 3.892-11.937 8.91-15.88A24.227 24.227 0 0123.974 0c7.379 0 14.235 3.264 18.81 8.954 6.28 7.81 6.943 18.644 1.71 27.116zm-6.687-12.91c4.584-6.68 4.248-15.417-.836-21.74-3.54-4.403-8.846-6.929-14.56-6.929-4.234 0-8.224 1.376-11.537 3.98-3.884 3.052-6.333 7.417-6.897 12.29-.563 4.874.827 9.672 3.914 13.512 3.486 4.334 8.95 6.922 14.62 6.923a18.45 18.45 0 006.816-1.293 2.75 2.75 0 011.653-.115c.218.022.433.071.642.145l6.864 2.468-.98-6.813a2.67 2.67 0 01.301-2.429zM23.145 10.738a2.672 2.672 0 01-1.384 3.535c-3.403 1.488-6.014 4.344-7.164 7.835a2.704 2.704 0 01-2.578 1.851c-.287 0-.57-.045-.844-.133a2.683 2.683 0 01-1.574-1.333 2.636 2.636 0 01-.162-2.046c1.627-4.937 5.318-8.975 10.127-11.078.347-.153.717-.23 1.098-.23 1.073 0 2.047.627 2.48 1.599z"/></mask></defs><g filter="url(#fa)"><path fill="none" d="M46.06 46.941a2.683 2.683 0 01-.977 2.46 2.737 2.737 0 01-2.638.437l-10.435-3.75a23.933 23.933 0 01-7.924 1.338c-7.316 0-14.372-3.344-18.875-8.946C1.223 33.52-.573 27.32.154 21.024c.728-6.297 3.892-11.937 8.91-15.88A24.227 24.227 0 0123.974 0c7.379 0 14.235 3.264 18.81 8.954 6.28 7.81 6.943 18.644 1.71 27.116zm-6.687-12.91c4.584-6.68 4.248-15.417-.836-21.74-3.54-4.403-8.846-6.929-14.56-6.929-4.234 0-8.224 1.376-11.537 3.98-3.884 3.052-6.333 7.417-6.897 12.29-.563 4.874.827 9.672 3.914 13.512 3.486 4.334 8.95 6.922 14.62 6.923a18.45 18.45 0 006.816-1.293 2.75 2.75 0 011.653-.115c.218.022.433.071.642.145l6.864 2.468-.98-6.813a2.67 2.67 0 01.301-2.429zM23.145 10.738a2.672 2.672 0 01-1.384 3.535c-3.403 1.488-6.014 4.344-7.164 7.835a2.704 2.704 0 01-2.578 1.851c-.287 0-.57-.045-.844-.133a2.683 2.683 0 01-1.574-1.333 2.636 2.636 0 01-.162-2.046c1.627-4.937 5.318-8.975 10.127-11.078.347-.153.717-.23 1.098-.23 1.073 0 2.047.627 2.48 1.599z" mask="url(#fb)"/><path fill="#fff" d="M46.06 46.941a2.683 2.683 0 01-.977 2.46 2.737 2.737 0 01-2.638.437l-10.435-3.75a23.933 23.933 0 01-7.924 1.338c-7.316 0-14.372-3.344-18.875-8.946C1.223 33.52-.573 27.32.154 21.024c.728-6.297 3.892-11.937 8.91-15.88A24.227 24.227 0 0123.974 0c7.379 0 14.235 3.264 18.81 8.954 6.28 7.81 6.943 18.644 1.71 27.116zm-6.687-12.91c4.584-6.68 4.248-15.417-.836-21.74-3.54-4.403-8.846-6.929-14.56-6.929-4.234 0-8.224 1.376-11.537 3.98-3.884 3.052-6.333 7.417-6.897 12.29-.563 4.874.827 9.672 3.914 13.512 3.486 4.334 8.95 6.922 14.62 6.923a18.45 18.45 0 006.816-1.293 2.75 2.75 0 011.653-.115c.218.022.433.071.642.145l6.864 2.468-.98-6.813a2.67 2.67 0 01.301-2.429zM23.145 10.738a2.672 2.672 0 01-1.384 3.535c-3.403 1.488-6.014 4.344-7.164 7.835a2.704 2.704 0 01-2.578 1.851c-.287 0-.57-.045-.844-.133a2.683 2.683 0 01-1.574-1.333 2.636 2.636 0 01-.162-2.046c1.627-4.937 5.318-8.975 10.127-11.078.347-.153.717-.23 1.098-.23 1.073 0 2.047.627 2.48 1.599z"/></g><path fill="#8038c2" d="M46.06 46.941a2.683 2.683 0 01-.977 2.46 2.737 2.737 0 01-2.638.437l-10.435-3.75a23.933 23.933 0 01-7.924 1.338c-7.316 0-14.372-3.344-18.875-8.946C1.223 33.52-.573 27.32.154 21.024c.728-6.297 3.892-11.937 8.91-15.88A24.227 24.227 0 0123.974 0c7.379 0 14.235 3.264 18.81 8.954 6.28 7.81 6.943 18.644 1.71 27.116zm-6.687-12.91c4.584-6.68 4.248-15.417-.836-21.74-3.54-4.403-8.846-6.929-14.56-6.929-4.234 0-8.224 1.376-11.537 3.98-3.884 3.052-6.333 7.417-6.897 12.29-.563 4.874.827 9.672 3.914 13.512 3.486 4.334 8.95 6.922 14.62 6.923a18.45 18.45 0 006.816-1.293 2.75 2.75 0 011.653-.115c.218.022.433.071.642.145l6.864 2.468-.98-6.813a2.67 2.67 0 01.301-2.429zM23.145 10.738a2.672 2.672 0 01-1.384 3.535c-3.403 1.488-6.014 4.344-7.164 7.835a2.704 2.704 0 01-2.578 1.851c-.287 0-.57-.045-.844-.133a2.683 2.683 0 01-1.574-1.333 2.636 2.636 0 01-.162-2.046c1.627-4.937 5.318-8.975 10.127-11.078.347-.153.717-.23 1.098-.23 1.073 0 2.047.627 2.48 1.599z"/><path fill="url(#fc)" d="M46.06 46.941a2.683 2.683 0 01-.977 2.46 2.737 2.737 0 01-2.638.437l-10.435-3.75a23.933 23.933 0 01-7.924 1.338c-7.316 0-14.372-3.344-18.875-8.946C1.223 33.52-.573 27.32.154 21.024c.728-6.297 3.892-11.937 8.91-15.88A24.227 24.227 0 0123.974 0c7.379 0 14.235 3.264 18.81 8.954 6.28 7.81 6.943 18.644 1.71 27.116zm-6.687-12.91c4.584-6.68 4.248-15.417-.836-21.74-3.54-4.403-8.846-6.929-14.56-6.929-4.234 0-8.224 1.376-11.537 3.98-3.884 3.052-6.333 7.417-6.897 12.29-.563 4.874.827 9.672 3.914 13.512 3.486 4.334 8.95 6.922 14.62 6.923a18.45 18.45 0 006.816-1.293 2.75 2.75 0 011.653-.115c.218.022.433.071.642.145l6.864 2.468-.98-6.813a2.67 2.67 0 01.301-2.429zM23.145 10.738a2.672 2.672 0 01-1.384 3.535c-3.403 1.488-6.014 4.344-7.164 7.835a2.704 2.704 0 01-2.578 1.851c-.287 0-.57-.045-.844-.133a2.683 2.683 0 01-1.574-1.333 2.636 2.636 0 01-.162-2.046c1.627-4.937 5.318-8.975 10.127-11.078.347-.153.717-.23 1.098-.23 1.073 0 2.047.627 2.48 1.599z"/></svg><svg viewBox="0 0 11 18" id="map_pin" xmlns="http://www.w3.org/2000/svg"><defs><filter id="ga" width="31" height="38" x="-10" y="-10" filterUnits="userSpaceOnUse"><feOffset dy="1" in="SourceGraphic" result="FeOffset1059Out"/><feGaussianBlur in="FeOffset1059Out" result="FeGaussianBlur1060Out" stdDeviation="0 0"/></filter><mask id="gb" width="2" height="2" x="-1" y="-1"><path fill="#fff" d="M0 0h11v17H0z"/><path d="M2.265 5.354c0-1.878 1.45-3.4 3.237-3.4 1.788 0 3.237 1.522 3.237 3.4 0 1.877-1.45 3.4-3.237 3.4-1.787 0-3.237-1.522-3.237-3.4zM0 5.779c0 1.422 1.641 4.42 1.641 4.42L5.502 17l3.639-6.8s1.863-3.02 1.863-4.42c0-3.193-2.463-5.781-5.502-5.781C2.463-.002 0 2.586 0 5.778z"/></mask></defs><g filter="url(#ga)"><path fill="none" d="M2.265 5.354c0-1.878 1.45-3.4 3.237-3.4 1.788 0 3.237 1.522 3.237 3.4 0 1.877-1.45 3.4-3.237 3.4-1.787 0-3.237-1.522-3.237-3.4zM0 5.779c0 1.422 1.641 4.42 1.641 4.42L5.502 17l3.639-6.8s1.863-3.02 1.863-4.42c0-3.193-2.463-5.781-5.502-5.781C2.463-.002 0 2.586 0 5.778z" mask="url(#gb)"/><path fill="#fff" d="M2.265 5.354c0-1.878 1.45-3.4 3.237-3.4 1.788 0 3.237 1.522 3.237 3.4 0 1.877-1.45 3.4-3.237 3.4-1.787 0-3.237-1.522-3.237-3.4zM0 5.779c0 1.422 1.641 4.42 1.641 4.42L5.502 17l3.639-6.8s1.863-3.02 1.863-4.42c0-3.193-2.463-5.781-5.502-5.781C2.463-.002 0 2.586 0 5.778z"/></g><path fill="#fff" d="M2.265 5.354c0-1.878 1.45-3.4 3.237-3.4 1.788 0 3.237 1.522 3.237 3.4 0 1.877-1.45 3.4-3.237 3.4-1.787 0-3.237-1.522-3.237-3.4zM0 5.779c0 1.422 1.641 4.42 1.641 4.42L5.502 17l3.639-6.8s1.863-3.02 1.863-4.42c0-3.193-2.463-5.781-5.502-5.781C2.463-.002 0 2.586 0 5.778z"/><path fill="#c7c7c7" d="M2.265 5.354c0-1.878 1.45-3.4 3.237-3.4 1.788 0 3.237 1.522 3.237 3.4 0 1.877-1.45 3.4-3.237 3.4-1.787 0-3.237-1.522-3.237-3.4zM0 5.779c0 1.422 1.641 4.42 1.641 4.42L5.502 17l3.639-6.8s1.863-3.02 1.863-4.42c0-3.193-2.463-5.781-5.502-5.781C2.463-.002 0 2.586 0 5.778z"/></svg></svg>